<?xml version="1.0" encoding="utf-8"?>
<svg version="1.1" xmlns:xlink="http://www.w3.org/1999/xlink" width="21px" height="21px" xmlns="http://www.w3.org/2000/svg">
  <g transform="matrix(1 0 0 1 -283 -447 )">
    <path d="M 293.5 447  C 299.38 447  304 451.62  304 457.5  C 304 463.38  299.38 468  293.5 468  C 287.62 468  283 463.38  283 457.5  C 283 451.62  287.62 447  293.5 447  Z " fill-rule="nonzero" fill="#ffffff" stroke="none" />
    <path d="M 293.5 447.5  C 299.1 447.5  303.5 451.9  303.5 457.5  C 303.5 463.1  299.1 467.5  293.5 467.5  C 287.9 467.5  283.5 463.1  283.5 457.5  C 283.5 451.9  287.9 447.5  293.5 447.5  Z " stroke-width="1" stroke="#797979" fill="none" />
  </g>
</svg>