<?xml version="1.0" encoding="utf-8"?>
<svg version="1.1" xmlns:xlink="http://www.w3.org/1999/xlink" width="21px" height="21px" xmlns="http://www.w3.org/2000/svg">
  <g transform="matrix(1 0 0 1 -285 -448 )">
    <path d="M 295.5 448  C 301.38 448  306 452.62  306 458.5  C 306 464.38  301.38 469  295.5 469  C 289.62 469  285 464.38  285 458.5  C 285 452.62  289.62 448  295.5 448  Z " fill-rule="nonzero" fill="#ffffff" stroke="none" />
    <path d="M 295.5 448.5  C 301.1 448.5  305.5 452.9  305.5 458.5  C 305.5 464.1  301.1 468.5  295.5 468.5  C 289.9 468.5  285.5 464.1  285.5 458.5  C 285.5 452.9  289.9 448.5  295.5 448.5  Z " stroke-width="1" stroke="#797979" fill="none" />
  </g>
</svg>