<?xml version="1.0" encoding="utf-8"?>
<svg version="1.1" xmlns:xlink="http://www.w3.org/1999/xlink" width="20px" height="20px" xmlns="http://www.w3.org/2000/svg">
  <g transform="matrix(1 0 0 1 -207 -1383 )">
    <path d="M 217 1383  C 222.6 1383  227 1387.4  227 1393  C 227 1398.6  222.6 1403  217 1403  C 211.4 1403  207 1398.6  207 1393  C 207 1387.4  211.4 1383  217 1383  Z " fill-rule="nonzero" fill="#ffffff" stroke="none" />
    <path d="M 217 1383.5  C 222.32 1383.5  226.5 1387.68  226.5 1393  C 226.5 1398.32  222.32 1402.5  217 1402.5  C 211.68 1402.5  207.5 1398.32  207.5 1393  C 207.5 1387.68  211.68 1383.5  217 1383.5  Z " stroke-width="1" stroke="#797979" fill="none" />
  </g>
</svg>